<?xml version="1.0" encoding="UTF-8" standalone="no"?>
<svg
   version="1.2"
   viewBox="0 0 259.57272 328.30002"
   width="259.57272"
   height="328.30002"
   id="svg23"
   sodipodi:docname="34750128_24_mtqxmjg1njm0nza2ms5qcgc-ai.svg"
   inkscape:version="1.3.2 (091e20e, 2023-11-25)"
   xmlns:inkscape="http://www.inkscape.org/namespaces/inkscape"
   xmlns:sodipodi="http://sodipodi.sourceforge.net/DTD/sodipodi-0.dtd"
   xmlns="http://www.w3.org/2000/svg"
   xmlns:svg="http://www.w3.org/2000/svg">
  <sodipodi:namedview
     id="namedview23"
     pagecolor="#505050"
     bordercolor="#ffffff"
     borderopacity="1"
     inkscape:showpageshadow="0"
     inkscape:pageopacity="0"
     inkscape:pagecheckerboard="1"
     inkscape:deskcolor="#505050"
     inkscape:zoom="1.0311353"
     inkscape:cx="76.614585"
     inkscape:cy="68.856146"
     inkscape:window-width="1728"
     inkscape:window-height="1097"
     inkscape:window-x="79"
     inkscape:window-y="44"
     inkscape:window-maximized="1"
     inkscape:current-layer="svg23" />
  <title
     id="title1">34750128_24_mtqxmjg1njm0nza2ms5qcgc-ai</title>
  <defs
     id="defs1">
    <clipPath
       clipPathUnits="userSpaceOnUse"
       id="cp1">
      <path
         d="M 1350.56,772.97 H 3.22 V -1.56 h 1347.34 z"
         id="path1" />
    </clipPath>
  </defs>
  <style
     id="style1">
		.s0 { fill: #cde800 } 
		.s1 { fill: #6ab336 } 
		.s2 { fill: #454545 } 
	</style>
  <g
     id="_Artboards_"
     transform="translate(-197.92728,-261.39998)" />
  <g
     id="Layer 1"
     transform="translate(-197.92728,-261.39998)">
    <g
       id="&lt;Clip Group&gt;"
       clip-path="url(#cp1)">
      <g
         id="g2">
        <g
           id="&lt;Group&gt;" />
        <g
           id="g1" />
      </g>
      <g
         id="g23">
        <g
           id="g22">
          <g
             id="g11">
            <g
               id="g9">
              <g
                 id="g3"
                 style="mix-blend-mode:multiply">
                <path
                   id="&lt;Path&gt;"
                   class="s0"
                   d="m 267.7,372.7 c -6,0 -11,-4.9 -11,-10.9 0,-55.4 45.1,-100.4 100.4,-100.4 6.1,0 11,4.9 11,11 0,6 -4.9,11 -11,11 -43.2,0 -78.4,35.1 -78.4,78.4 0,6 -4.9,10.9 -11,10.9 z" />
              </g>
              <g
                 id="g4"
                 style="mix-blend-mode:multiply">
                <path
                   id="path3"
                   class="s0"
                   d="m 446.5,372.7 c -6.1,0 -11,-4.9 -11,-10.9 0,-43.3 -35.2,-78.4 -78.4,-78.4 -6.1,0 -11,-5 -11,-11 0,-6.1 4.9,-11 11,-11 55.3,0 100.4,45 100.4,100.4 0,6 -5,10.9 -11,10.9 z" />
              </g>
              <g
                 id="g5"
                 style="mix-blend-mode:multiply">
                <path
                   id="path4"
                   class="s1"
                   d="m 267.7,452.4 c -6,0 -11,-4.9 -11,-11 v -79.6 c 0,-6.1 5,-11 11,-11 6.1,0 11,4.9 11,11 v 79.6 c 0,6.1 -4.9,11 -11,11 z" />
              </g>
              <g
                 id="g6"
                 style="mix-blend-mode:multiply">
                <path
                   id="path5"
                   class="s2"
                   d="m 267.7,544.7 c -6,0 -11,-4.9 -11,-11 v -92.3 c 0,-6 5,-10.9 11,-10.9 6.1,0 11,4.9 11,10.9 v 92.3 c 0,6.1 -4.9,11 -11,11 z" />
              </g>
              <g
                 id="g7"
                 style="mix-blend-mode:multiply">
                <path
                   id="path6"
                   class="s1"
                   d="m 446.5,452.4 c -6.1,0 -11,-4.9 -11,-11 v -79.6 c 0,-6.1 4.9,-11 11,-11 6,0 11,4.9 11,11 v 79.6 c 0,6.1 -5,11 -11,11 z" />
              </g>
              <g
                 id="g8"
                 style="mix-blend-mode:multiply">
                <path
                   id="path7"
                   class="s2"
                   d="m 446.5,589.7 c -6.1,0 -11,-4.9 -11,-11 v -92.3 c 0,-6 4.9,-10.9 11,-10.9 6,0 11,4.9 11,10.9 v 92.3 c 0,6.1 -5,11 -11,11 z" />
                <path
                   id="&lt;Path&gt; copy"
                   class="s2"
                   d="m 446.5,544.7 c -6.1,0 -11,-4.9 -11,-11 v -92.3 c 0,-6 4.9,-10.9 11,-10.9 6,0 11,4.9 11,10.9 v 92.3 c 0,6.1 -5,11 -11,11 z" />
              </g>
            </g>
            <g
               id="g10"
               style="mix-blend-mode:multiply">
              <path
                 id="path9"
                 class="s0"
                 d="m 267.7,372.7 c -6,0 -11,-4.9 -11,-10.9 v -89.4 c 0,-6.1 5,-11 11,-11 6.1,0 11,4.9 11,11 v 89.4 c 0,6 -4.9,10.9 -11,10.9 z" />
            </g>
          </g>
          <g
             id="g20"
             style="opacity:0.2">
            <g
               id="g18">
              <g
                 id="g12"
                 style="mix-blend-mode:multiply" />
              <g
                 id="g13"
                 style="mix-blend-mode:multiply" />
              <g
                 id="g14"
                 style="mix-blend-mode:multiply" />
              <g
                 id="g15"
                 style="mix-blend-mode:multiply" />
              <g
                 id="g16"
                 style="mix-blend-mode:multiply" />
              <g
                 id="g17"
                 style="mix-blend-mode:multiply" />
            </g>
            <g
               id="g19"
               style="mix-blend-mode:multiply" />
          </g>
          <g
             id="g21"
             style="mix-blend-mode:multiply">
            <path
               id="path20"
               class="s2"
               d="m 208.9,328.1 c -3.3,0 -6.6,-1.5 -8.7,-4.4 -3.7,-4.8 -2.8,-11.7 2.1,-15.4 l 58.8,-44.7 c 4.8,-3.6 11.7,-2.7 15.4,2.1 3.6,4.9 2.7,11.8 -2.1,15.4 l -58.9,44.7 c -1.9,1.5 -4.3,2.3 -6.6,2.3 z" />
          </g>
        </g>
      </g>
    </g>
  </g>
</svg>
