<svg width="375" height="100" viewBox="0 0 375 100" fill="none" xmlns="http://www.w3.org/2000/svg">
<g clip-path="url(#clip0_8_4)">
<mask id="mask0_8_4" style="mask-type:luminance" maskUnits="userSpaceOnUse" x="-52" y="-57" width="359" height="206">
<path d="M306.395 148.567H-51.7573V-56.6848H306.395V148.567Z" fill="white"/>
</mask>
<g mask="url(#mask0_8_4)">
<g style="mix-blend-mode:multiply">
<path d="M18.5471 42.4947C16.9522 42.4947 15.623 41.1962 15.623 39.6061C15.623 24.9251 27.6116 13 42.3115 13C43.933 13 45.2356 14.2985 45.2356 15.915C45.2356 17.505 43.933 18.83 42.3115 18.83C30.828 18.83 21.4711 28.1316 21.4711 39.6061C21.4711 41.1962 20.1686 42.4947 18.5471 42.4947Z" fill="#CDE800"/>
</g>
<g style="mix-blend-mode:multiply">
<path d="M66.0759 42.4947C64.4544 42.4947 63.1519 41.1962 63.1519 39.6061C63.1519 28.1316 53.795 18.83 42.3115 18.83C40.69 18.83 39.3875 17.505 39.3875 15.915C39.3875 14.2985 40.69 13 42.3115 13C57.0114 13 69 24.9251 69 39.6061C69 41.1962 67.6709 42.4947 66.0759 42.4947Z" fill="#CDE800"/>
</g>
<g style="mix-blend-mode:multiply">
<path d="M18.5471 63.6153C16.9522 63.6153 15.623 62.3168 15.623 60.7003V39.6062C15.623 37.9896 16.9522 36.6911 18.5471 36.6911C20.1686 36.6911 21.4711 37.9896 21.4711 39.6062V60.7003C21.4711 62.3168 20.1686 63.6153 18.5471 63.6153Z" fill="#6AB336"/>
</g>
<g style="mix-blend-mode:multiply">
<path d="M18.5471 88.0749C16.9522 88.0749 15.623 86.7764 15.623 85.1599V60.7003C15.623 59.1103 16.9522 57.8118 18.5471 57.8118C20.1686 57.8118 21.4711 59.1103 21.4711 60.7003V85.1599C21.4711 86.7764 20.1686 88.0749 18.5471 88.0749Z" fill="#454545"/>
</g>
<g style="mix-blend-mode:multiply">
<path d="M66.076 63.6153C64.4545 63.6153 63.152 62.3168 63.152 60.7003V39.6062C63.152 37.9896 64.4545 36.6911 66.076 36.6911C67.6709 36.6911 69 37.9896 69 39.6062V60.7003C69 62.3168 67.6709 63.6153 66.076 63.6153Z" fill="#6AB336"/>
</g>
<g style="mix-blend-mode:multiply">
<path d="M66.076 100C64.4545 100 63.152 98.7015 63.152 97.085V72.6253C63.152 71.0353 64.4545 69.7368 66.076 69.7368C67.6709 69.7368 69 71.0353 69 72.6253V97.085C69 98.7015 67.6709 100 66.076 100Z" fill="#454545"/>
<path d="M66.076 88.0749C64.4545 88.0749 63.152 86.7764 63.152 85.1599V60.7003C63.152 59.1103 64.4545 57.8118 66.076 57.8118C67.6709 57.8118 69 59.1103 69 60.7003V85.1599C69 86.7764 67.6709 88.0749 66.076 88.0749Z" fill="#454545"/>
</g>
<g style="mix-blend-mode:multiply">
<path d="M18.5471 42.4947C16.9522 42.4947 15.623 41.1962 15.623 39.6061V15.915C15.623 14.2985 16.9522 13 18.5471 13C20.1686 13 21.4711 14.2985 21.4711 15.915V39.6061C21.4711 41.1962 20.1686 42.4947 18.5471 42.4947Z" fill="#CDE800"/>
</g>
<g style="mix-blend-mode:multiply">
<path d="M2.91678 30.6756C2.03957 30.6756 1.16236 30.2781 0.604136 29.5096C-0.379403 28.2376 -0.140162 26.4091 1.16236 25.4286L16.7927 13.583C18.0686 12.629 19.9028 12.8675 20.8863 14.1395C21.8433 15.438 21.604 17.2665 20.3281 18.2205L4.67121 30.0661C4.16614 30.4636 3.52817 30.6756 2.91678 30.6756Z" fill="#454545"/>
</g>
</g>
</g>
<path d="M95.0088 40.1641V46.5703H95.1689C98.2386 41.819 102.283 39.4434 107.301 39.4434C111.465 39.4434 114.788 40.778 117.271 43.4473C119.753 46.1165 120.994 49.8135 120.994 54.5381V77H117.07V56.0195C117.07 47.5312 113.734 43.2871 107.061 43.2871C102.176 43.2871 98.1585 45.9163 95.0088 51.1748V77H91.085V40.1641H95.0088ZM160.713 70.5938V73.877C157.323 76.4395 154.84 77.7207 153.266 77.7207C152.358 77.7207 151.731 77.4271 151.384 76.8398C151.037 76.2259 150.783 74.998 150.623 73.1562C146.753 76.1992 142.909 77.7207 139.092 77.7207C136.316 77.7207 133.967 76.8132 132.045 74.998C130.123 73.1829 129.162 70.9808 129.162 68.3916C129.162 64.3877 131.017 61.238 134.728 58.9424C138.438 56.6201 143.736 55.2855 150.623 54.9385V50.2539C150.623 45.2357 147.9 42.7266 142.455 42.7266C138.985 42.7266 135.235 44.2881 131.204 47.4111V43.3672C135.368 40.7513 139.332 39.4434 143.096 39.4434C146.432 39.4434 149.182 40.2708 151.344 41.9258C153.506 43.554 154.587 45.9297 154.587 49.0527V71.9951C154.587 73.2497 154.881 73.877 155.468 73.877C156.215 73.877 157.964 72.7826 160.713 70.5938ZM150.623 69.7129V58.2217C145.578 58.0348 141.387 58.929 138.051 60.9043C134.741 62.8529 133.086 65.3486 133.086 68.3916C133.086 70.0999 133.78 71.5413 135.168 72.7158C136.556 73.8903 138.291 74.4775 140.373 74.4775C143.736 74.4775 147.153 72.8893 150.623 69.7129ZM170.202 40.1641V46.5703H170.362C173.432 41.819 177.476 39.4434 182.494 39.4434C186.658 39.4434 189.981 40.778 192.464 43.4473C194.946 46.1165 196.188 49.8135 196.188 54.5381V77H192.264V56.0195C192.264 47.5312 188.927 43.2871 182.254 43.2871C177.369 43.2871 173.352 45.9163 170.202 51.1748V77H166.278V40.1641H170.202ZM223.614 39.4434C228.953 39.4434 233.397 41.2718 236.947 44.9287C240.524 48.5856 242.312 53.1501 242.312 58.6221C242.312 64.0674 240.524 68.6185 236.947 72.2754C233.397 75.9056 228.953 77.7207 223.614 77.7207C218.276 77.7207 213.805 75.9056 210.201 72.2754C206.624 68.6185 204.836 64.0674 204.836 58.6221C204.836 53.1501 206.624 48.5856 210.201 44.9287C213.805 41.2718 218.276 39.4434 223.614 39.4434ZM223.614 73.877C227.752 73.877 231.208 72.4355 233.984 69.5527C236.76 66.6432 238.148 62.9997 238.148 58.6221C238.148 54.2712 236.747 50.6276 233.944 47.6914C231.168 44.7552 227.725 43.2871 223.614 43.2871C219.45 43.2871 215.967 44.7419 213.164 47.6514C210.388 50.5609 209 54.2178 209 58.6221C209 62.9997 210.388 66.6432 213.164 69.5527C215.967 72.4355 219.45 73.877 223.614 73.877ZM256.566 39.6035L265.535 61.2646L274.304 39.6035H284.794L267.897 77.7207H263.133L245.996 39.6035H256.566ZM295.164 22.3066C296.686 22.3066 297.993 22.8538 299.088 23.9482C300.182 25.0426 300.729 26.3506 300.729 27.8721C300.729 29.3402 300.182 30.6481 299.088 31.7959C298.02 32.917 296.712 33.4775 295.164 33.4775C293.669 33.4775 292.361 32.917 291.24 31.7959C290.146 30.6481 289.599 29.3402 289.599 27.8721C289.599 26.3239 290.159 25.016 291.28 23.9482C292.401 22.8538 293.696 22.3066 295.164 22.3066ZM300.089 39.6035V77H290.239V39.6035H300.089ZM331.92 38.8828C334.803 38.8828 337.232 39.5635 339.207 40.9248C341.209 42.2594 342.704 44.0612 343.691 46.3301C345.8 43.7409 347.896 41.859 349.978 40.6846C352.086 39.4834 354.395 38.8828 356.904 38.8828C360.855 38.8828 364.045 40.1774 366.474 42.7666C368.903 45.3291 370.117 48.7591 370.117 53.0566V77H360.268V54.6982C360.268 52.109 359.707 50.0671 358.586 48.5723C357.492 47.0775 355.89 46.3301 353.781 46.3301C350.765 46.3301 347.869 48.2653 345.093 52.1357V77H335.283V54.5381C335.283 51.9756 334.696 49.9736 333.521 48.5322C332.347 47.0641 330.772 46.3301 328.797 46.3301C327.195 46.3301 325.727 46.7972 324.393 47.7314C323.058 48.639 321.63 50.1071 320.108 52.1357V77H310.259V39.6035H320.108V44.8486C321.897 42.82 323.712 41.3252 325.554 40.3643C327.396 39.3766 329.518 38.8828 331.92 38.8828Z" fill="#454545"/>
<defs>
<clipPath id="clip0_8_4">
<rect width="69" height="87" fill="white" transform="translate(0 13)"/>
</clipPath>
</defs>
</svg>
