<svg width="400" height="100" viewBox="0 0 400 100" fill="none" xmlns="http://www.w3.org/2000/svg">
<g clip-path="url(#clip0_8_4)">
<mask id="mask0_8_4" style="mask-type:luminance" maskUnits="userSpaceOnUse" x="-52" y="-57" width="359" height="206">
<path d="M306.395 148.567H-51.7573V-56.6848H306.395V148.567Z" fill="white"/>
</mask>
<g mask="url(#mask0_8_4)">
<g style="mix-blend-mode:multiply">
<path d="M18.5471 42.4947C16.9522 42.4947 15.623 41.1962 15.623 39.6061C15.623 24.9251 27.6116 13 42.3115 13C43.933 13 45.2356 14.2985 45.2356 15.915C45.2356 17.505 43.933 18.83 42.3115 18.83C30.828 18.83 21.4711 28.1316 21.4711 39.6061C21.4711 41.1962 20.1686 42.4947 18.5471 42.4947Z" fill="#CDE800"/>
</g>
<g style="mix-blend-mode:multiply">
<path d="M66.0759 42.4947C64.4544 42.4947 63.1519 41.1962 63.1519 39.6061C63.1519 28.1316 53.795 18.83 42.3115 18.83C40.69 18.83 39.3875 17.505 39.3875 15.915C39.3875 14.2985 40.69 13 42.3115 13C57.0114 13 69 24.9251 69 39.6061C69 41.1962 67.6709 42.4947 66.0759 42.4947Z" fill="#CDE800"/>
</g>
<g style="mix-blend-mode:multiply">
<path d="M18.5471 63.6153C16.9522 63.6153 15.623 62.3168 15.623 60.7003V39.6061C15.623 37.9896 16.9522 36.6911 18.5471 36.6911C20.1686 36.6911 21.4711 37.9896 21.4711 39.6061V60.7003C21.4711 62.3168 20.1686 63.6153 18.5471 63.6153Z" fill="#6AB336"/>
</g>
<g style="mix-blend-mode:multiply">
<path d="M18.5471 88.0749C16.9522 88.0749 15.623 86.7764 15.623 85.1599V60.7003C15.623 59.1103 16.9522 57.8118 18.5471 57.8118C20.1686 57.8118 21.4711 59.1103 21.4711 60.7003V85.1599C21.4711 86.7764 20.1686 88.0749 18.5471 88.0749Z" fill="#454545"/>
</g>
<g style="mix-blend-mode:multiply">
<path d="M66.076 63.6153C64.4545 63.6153 63.152 62.3168 63.152 60.7003V39.6061C63.152 37.9896 64.4545 36.6911 66.076 36.6911C67.6709 36.6911 69 37.9896 69 39.6061V60.7003C69 62.3168 67.6709 63.6153 66.076 63.6153Z" fill="#6AB336"/>
</g>
<g style="mix-blend-mode:multiply">
<path d="M66.076 100C64.4545 100 63.152 98.7015 63.152 97.085V72.6253C63.152 71.0353 64.4545 69.7368 66.076 69.7368C67.6709 69.7368 69 71.0353 69 72.6253V97.085C69 98.7015 67.6709 100 66.076 100Z" fill="#454545"/>
<path d="M66.076 88.0749C64.4545 88.0749 63.152 86.7764 63.152 85.1599V60.7003C63.152 59.1103 64.4545 57.8118 66.076 57.8118C67.6709 57.8118 69 59.1103 69 60.7003V85.1599C69 86.7764 67.6709 88.0749 66.076 88.0749Z" fill="#454545"/>
</g>
<g style="mix-blend-mode:multiply">
<path d="M18.5471 42.4947C16.9522 42.4947 15.623 41.1962 15.623 39.6061V15.915C15.623 14.2985 16.9522 13 18.5471 13C20.1686 13 21.4711 14.2985 21.4711 15.915V39.6061C21.4711 41.1962 20.1686 42.4947 18.5471 42.4947Z" fill="#CDE800"/>
</g>
<g style="mix-blend-mode:multiply">
<path d="M2.91678 30.6756C2.03957 30.6756 1.16236 30.2781 0.604136 29.5096C-0.379403 28.2376 -0.140162 26.4091 1.16236 25.4286L16.7927 13.583C18.0686 12.629 19.9028 12.8675 20.8863 14.1395C21.8433 15.438 21.604 17.2665 20.3281 18.2205L4.67121 30.0661C4.16614 30.4636 3.52817 30.6756 2.91678 30.6756Z" fill="#454545"/>
</g>
</g>
</g>
<path d="M95.0088 39.1641V45.5703H95.1689C98.2386 40.819 102.283 38.4434 107.301 38.4434C111.465 38.4434 114.788 39.778 117.271 42.4473C119.753 45.1165 120.994 48.8135 120.994 53.5381V76H117.07V55.0195C117.07 46.5312 113.734 42.2871 107.061 42.2871C102.176 42.2871 98.1585 44.9163 95.0088 50.1748V76H91.085V39.1641H95.0088ZM160.713 69.5938V72.877C157.323 75.4395 154.84 76.7207 153.266 76.7207C152.358 76.7207 151.731 76.4271 151.384 75.8398C151.037 75.2259 150.783 73.998 150.623 72.1562C146.753 75.1992 142.909 76.7207 139.092 76.7207C136.316 76.7207 133.967 75.8132 132.045 73.998C130.123 72.1829 129.162 69.9808 129.162 67.3916C129.162 63.3877 131.017 60.238 134.728 57.9424C138.438 55.6201 143.736 54.2855 150.623 53.9385V49.2539C150.623 44.2357 147.9 41.7266 142.455 41.7266C138.985 41.7266 135.235 43.2881 131.204 46.4111V42.3672C135.368 39.7513 139.332 38.4434 143.096 38.4434C146.432 38.4434 149.182 39.2708 151.344 40.9258C153.506 42.554 154.587 44.9297 154.587 48.0527V70.9951C154.587 72.2497 154.881 72.877 155.468 72.877C156.215 72.877 157.964 71.7826 160.713 69.5938ZM150.623 68.7129V57.2217C145.578 57.0348 141.387 57.929 138.051 59.9043C134.741 61.8529 133.086 64.3486 133.086 67.3916C133.086 69.0999 133.78 70.5413 135.168 71.7158C136.556 72.8903 138.291 73.4775 140.373 73.4775C143.736 73.4775 147.153 71.8893 150.623 68.7129ZM170.202 39.1641V45.5703H170.362C173.432 40.819 177.476 38.4434 182.494 38.4434C186.658 38.4434 189.981 39.778 192.464 42.4473C194.946 45.1165 196.188 48.8135 196.188 53.5381V76H192.264V55.0195C192.264 46.5312 188.927 42.2871 182.254 42.2871C177.369 42.2871 173.352 44.9163 170.202 50.1748V76H166.278V39.1641H170.202ZM223.614 38.4434C228.953 38.4434 233.397 40.2718 236.947 43.9287C240.524 47.5856 242.312 52.1501 242.312 57.6221C242.312 63.0674 240.524 67.6185 236.947 71.2754C233.397 74.9056 228.953 76.7207 223.614 76.7207C218.276 76.7207 213.805 74.9056 210.201 71.2754C206.624 67.6185 204.836 63.0674 204.836 57.6221C204.836 52.1501 206.624 47.5856 210.201 43.9287C213.805 40.2718 218.276 38.4434 223.614 38.4434ZM223.614 72.877C227.752 72.877 231.208 71.4355 233.984 68.5527C236.76 65.6432 238.148 61.9997 238.148 57.6221C238.148 53.2712 236.747 49.6276 233.944 46.6914C231.168 43.7552 227.725 42.2871 223.614 42.2871C219.45 42.2871 215.967 43.7419 213.164 46.6514C210.388 49.5609 209 53.2178 209 57.6221C209 61.9997 210.388 65.6432 213.164 68.5527C215.967 71.4355 219.45 72.877 223.614 72.877ZM293.402 35.2402L274.864 76H264.214L246.076 35.2402H261.571L270.02 56.5811L279.389 35.2402H293.402ZM312.261 25.8311C312.261 27.5127 311.66 28.9408 310.459 30.1152C309.258 31.2897 307.83 31.877 306.175 31.877C305.054 31.877 304.026 31.61 303.092 31.0762C302.184 30.5423 301.464 29.8216 300.93 28.9141C300.396 27.9798 300.129 26.9521 300.129 25.8311C300.129 24.1761 300.716 22.748 301.891 21.5469C303.065 20.3457 304.493 19.7451 306.175 19.7451C307.83 19.7451 309.258 20.3457 310.459 21.5469C311.66 22.748 312.261 24.1761 312.261 25.8311ZM313.422 76H298.968V35.2402H313.422V76ZM396.022 76H381.608V54.2588C381.608 51.376 381.128 49.2272 380.167 47.8125C379.233 46.3711 377.738 45.6504 375.683 45.6504C373.681 45.6504 372.039 46.2643 370.758 47.4922C369.477 48.6934 368.195 50.2148 366.914 52.0566V76H352.5V54.2588C352.5 51.5094 352.06 49.3874 351.179 47.8926C350.298 46.3978 348.736 45.6504 346.494 45.6504C345.426 45.6504 344.439 45.8639 343.531 46.291C342.65 46.7181 341.93 47.1986 341.369 47.7324C340.809 48.2663 340.128 49.0537 339.327 50.0947C338.526 51.1357 338.019 51.7897 337.806 52.0566V76H323.392V35.2402H337.806V41.0859C339.968 38.7904 342.17 37.1221 344.412 36.0811C346.654 35.04 349.243 34.5195 352.18 34.5195C353.568 34.5195 354.889 34.653 356.144 34.9199C357.398 35.1602 358.626 35.5872 359.827 36.2012C361.055 36.8151 362.163 37.6559 363.15 38.7236C364.138 39.7913 364.925 41.0326 365.513 42.4473C367.835 39.8314 370.237 37.8561 372.72 36.5215C375.229 35.1868 378.112 34.5195 381.368 34.5195C384.625 34.5195 387.347 35.1735 389.536 36.4814C391.752 37.7894 393.38 39.6846 394.421 42.167C395.489 44.6227 396.022 47.6123 396.022 51.1357V76Z" fill="#454545"/>
<defs>
<clipPath id="clip0_8_4">
<rect width="69" height="87" fill="white" transform="translate(0 13)"/>
</clipPath>
</defs>
</svg>
